<?xml version="1.0" standalone="no"?>
<!DOCTYPE svg PUBLIC "-//W3C//DTD SVG 20010904//EN"
 "http://www.w3.org/TR/2001/REC-SVG-20010904/DTD/svg10.dtd">
<svg version="1.0" xmlns="http://www.w3.org/2000/svg"
 width="512.000000pt" height="512.000000pt" viewBox="0 0 512.000000 512.000000"
 preserveAspectRatio="xMidYMid meet">

<g transform="translate(0.000000,512.000000) scale(0.100000,-0.100000)"
fill="#000000" stroke="none">
<path d="M1550 4570 c0 -5 5 -10 10 -10 6 0 10 5 10 10 0 6 -4 10 -10 10 -5 0
-10 -4 -10 -10z"/>
<path d="M1724 4276 c19 -54 56 -86 56 -48 0 14 2 15 10 2 7 -12 12 -12 21 -3
17 17 -19 56 -65 70 l-33 10 11 -31z"/>
<path d="M1681 4101 c6 -17 15 -29 20 -26 10 7 -4 48 -19 53 -8 2 -9 -5 -1
-27z"/>
<path d="M1470 4097 c0 -14 36 -48 43 -41 2 2 10 -2 17 -11 10 -12 10 -15 -2
-15 -8 0 -15 -7 -15 -15 0 -10 4 -12 12 -5 12 10 65 -8 65 -23 0 -5 5 -5 10
-2 6 3 10 -4 10 -17 0 -18 2 -20 10 -8 7 11 1 23 -28 48 -20 17 -32 32 -25 32
6 0 18 -7 27 -15 13 -13 15 -13 21 5 9 27 -15 49 -72 66 -57 17 -73 18 -73 1z"/>
<path d="M1464 4055 c5 -11 12 -35 18 -52 6 -24 15 -33 31 -33 l21 0 -22 16
c-12 8 -22 26 -22 38 0 13 -8 30 -17 37 -15 12 -16 12 -9 -6z"/>
<path d="M1670 4025 c0 -12 27 -63 44 -80 14 -15 20 -17 23 -6 5 11 7 11 13 0
5 -8 2 -18 -8 -27 -16 -13 -16 -13 0 -8 10 3 20 1 23 -4 4 -6 1 -10 -6 -10 -6
0 3 -14 20 -32 38 -39 39 -50 4 -38 -16 5 -45 11 -65 15 -50 8 -185 77 -226
115 -30 27 -33 28 -27 8 4 -13 14 -31 23 -40 8 -10 11 -18 7 -18 -5 0 2 -11
15 -25 13 -14 20 -25 16 -25 -4 0 -1 -7 6 -15 29 -33 34 -41 30 -53 -2 -6 1
-12 7 -12 6 0 15 -18 21 -40 6 -22 15 -40 20 -40 6 0 10 -4 10 -10 0 -19 -29
-10 -35 11 -4 13 -12 18 -22 15 -8 -3 -23 -6 -33 -6 -10 0 -20 -7 -24 -15 -6
-16 18 -80 34 -90 5 -3 10 -10 10 -16 0 -5 -9 -4 -19 3 -11 7 -17 16 -15 20 3
4 -2 8 -11 8 -12 0 -15 -5 -10 -17 4 -10 10 -29 13 -43 5 -23 4 -24 -11 -8
-10 9 -17 23 -17 31 0 8 -6 27 -14 43 -8 16 -16 36 -18 44 -2 8 -7 18 -13 22
-6 5 -5 16 4 30 13 20 12 22 -1 11 -12 -11 -18 -5 -38 38 -37 77 -42 68 -8
-13 17 -40 27 -74 22 -75 -29 -10 -36 -21 -25 -41 9 -16 7 -22 -11 -34 -30
-20 -21 -37 89 -168 112 -133 171 -216 217 -303 46 -89 123 -197 141 -197 17
0 28 31 20 56 -4 12 -1 10 10 -6 12 -18 15 -19 10 -5 -4 11 -8 45 -10 75 -2
30 -4 60 -6 65 -1 6 1 17 5 26 4 8 3 42 -3 75 -5 35 -5 60 0 62 5 2 9 19 9 37
0 21 6 35 16 39 13 5 15 17 10 76 -5 57 -4 70 8 70 8 0 18 9 21 20 3 11 15 20
25 20 14 0 21 10 26 35 9 47 27 62 56 43 13 -8 47 -23 76 -33 40 -15 55 -16
64 -7 9 9 8 12 -5 12 -9 0 -25 9 -36 21 -12 13 -24 18 -33 13 -10 -6 -10 -4 1
9 12 16 15 16 42 0 17 -10 24 -20 18 -24 -6 -3 -1 -9 11 -12 12 -3 30 -1 39 5
13 8 31 6 69 -6 29 -10 54 -22 57 -27 4 -5 12 -9 18 -9 15 0 -34 39 -49 40 -6
0 -23 11 -38 25 -15 14 -32 23 -37 20 -5 -4 -12 1 -15 9 -3 9 -10 13 -15 10
-5 -3 -9 0 -9 6 0 6 -4 8 -10 5 -5 -3 -10 -2 -10 3 0 5 -18 14 -40 21 -22 6
-40 16 -40 21 0 6 -11 10 -25 10 -16 0 -25 6 -25 15 0 8 -9 15 -21 15 -11 0
-17 5 -14 10 3 6 -1 10 -9 10 -8 0 -19 7 -24 16 -5 9 -11 14 -13 13 -15 -12
-209 158 -209 183 0 4 -5 8 -10 8 -7 0 -7 -7 0 -22 8 -15 -1 -10 -24 14 -20
21 -36 36 -36 33z m420 -369 c0 -3 -4 -8 -10 -11 -5 -3 -10 -1 -10 4 0 6 5 11
10 11 6 0 10 -2 10 -4z m-620 -100 c0 -5 -6 -2 -13 7 -7 10 -22 16 -36 15 -13
-2 -26 3 -28 10 -3 6 3 12 12 12 10 0 14 5 9 13 -4 6 7 -1 24 -17 18 -17 32
-34 32 -40z m-36 -12 c9 -24 7 -28 -9 -14 -17 14 -20 30 -6 30 5 0 12 -7 15
-16z m40 -77 c7 -6 6 -7 -4 -4 -8 2 -16 12 -17 23 -2 13 -1 15 4 4 3 -8 11
-19 17 -23z"/>
<path d="M1890 4000 c0 -5 5 -10 11 -10 6 0 9 -7 5 -15 -4 -10 1 -15 14 -15
13 0 18 -5 14 -15 -4 -10 0 -15 11 -15 10 0 13 -5 9 -12 -4 -7 -3 -8 5 -4 7 4
18 -4 28 -22 9 -16 26 -35 36 -42 22 -13 21 -12 -24 55 -29 43 -109 113 -109
95z"/>
<path d="M1539 3991 c7 -5 10 -14 7 -20 -4 -6 0 -11 8 -11 21 0 21 26 0 34
-23 9 -31 7 -15 -3z"/>
<path d="M2140 3962 c0 -5 7 -15 15 -22 8 -7 15 -8 15 -2 0 5 -7 15 -15 22 -8
7 -15 8 -15 2z"/>
<path d="M3236 3790 c-22 -11 -46 -20 -53 -20 -7 0 -13 -5 -13 -11 0 -6 -7 -9
-15 -6 -8 4 -17 2 -20 -3 -4 -6 -15 -10 -26 -10 -10 0 -19 -5 -19 -11 0 -6 -9
-8 -22 -4 -15 4 -19 3 -10 -3 9 -6 6 -12 -13 -20 -33 -15 -38 -15 -30 1 4 6 0
4 -8 -6 -16 -19 -77 -41 -86 -30 -3 3 0 8 7 10 6 3 12 9 12 14 0 5 -11 3 -25
-3 -30 -13 -31 -19 -7 -35 15 -9 38 -3 123 33 94 39 105 41 117 27 6 -9 12
-25 12 -35 0 -11 11 -23 25 -28 14 -5 28 -17 32 -26 4 -10 13 -14 28 -10 25 6
28 0 41 -88 5 -36 12 -50 26 -54 17 -4 19 -11 14 -45 -4 -23 -2 -45 4 -52 7
-8 12 -70 14 -152 1 -116 4 -138 17 -141 20 -4 52 39 116 153 28 50 71 126 97
170 42 73 55 105 40 105 -3 0 -12 -16 -20 -35 -9 -22 -19 -33 -26 -29 -6 4 -9
3 -6 -2 4 -5 -4 -27 -16 -49 -16 -28 -30 -41 -47 -42 l-24 -2 24 7 c39 12 34
27 -9 27 -40 1 -65 14 -42 22 6 3 10 9 6 14 -3 5 -1 9 4 9 6 0 8 9 5 20 -3 11
-11 20 -19 20 -9 0 -12 11 -8 42 3 23 8 46 11 51 3 4 -4 11 -16 14 -12 3 -21
9 -21 13 0 4 -13 10 -30 13 -21 5 -28 11 -24 22 4 9 1 15 -7 15 -7 0 -5 6 7
14 29 22 9 30 -24 10 -38 -22 -68 -13 -52 16 11 20 2 27 -15 12 -6 -5 -22 -13
-37 -20 -23 -9 -26 -9 -21 3 3 8 0 15 -7 15 -10 0 -10 3 0 15 6 8 9 19 6 24
-4 5 11 22 31 37 70 51 69 59 -1 24z m221 -416 c-3 -3 -12 -4 -19 -1 -8 3 -5
6 6 6 11 1 17 -2 13 -5z"/>
<path d="M1466 3683 c-6 -14 -5 -15 5 -6 7 7 10 15 7 18 -3 3 -9 -2 -12 -12z"/>
<path d="M3508 3684 c-34 -15 -65 -50 -32 -37 7 3 14 9 14 13 0 5 14 11 30 15
17 4 30 11 30 16 0 11 3 11 -42 -7z"/>
<path d="M2354 3610 c14 -17 23 -37 19 -46 -5 -13 -2 -13 22 -2 l27 12 -38 33
c-49 41 -64 42 -30 3z"/>
<path d="M2689 3584 c-13 -15 -18 -25 -10 -22 13 4 49 48 39 48 -2 0 -15 -12
-29 -26z"/>
<path d="M2439 3577 c6 -8 7 -18 3 -23 -4 -5 -3 -6 2 -2 5 4 18 2 30 -4 19
-10 19 -8 -3 16 -25 26 -53 38 -32 13z"/>
<path d="M3639 3553 c-13 -16 -12 -17 4 -4 16 13 21 21 13 21 -2 0 -10 -8 -17
-17z"/>
<path d="M3204 3430 c-5 -5 -35 -25 -66 -44 -57 -34 -57 -34 -40 -8 14 23 10
21 -28 -11 -24 -21 -55 -40 -67 -43 -13 -4 -20 -10 -17 -15 3 -5 -1 -6 -8 -4
-7 3 -33 -12 -58 -34 -25 -22 -46 -38 -48 -36 -2 2 4 16 13 32 l17 28 -22 -25
c-12 -14 -37 -42 -56 -63 -19 -20 -32 -41 -29 -46 10 -17 -13 -22 -28 -6 -13
13 -16 13 -21 -1 -3 -9 -3 -20 0 -25 3 -5 0 -8 -6 -7 -7 2 -18 -14 -26 -34 -7
-21 -9 -38 -4 -38 4 0 10 5 12 12 3 9 6 9 12 -1 5 -8 1 -14 -12 -18 -21 -5
-39 -33 -22 -33 14 0 60 53 60 68 0 7 5 10 11 7 6 -4 9 0 7 11 -2 11 2 18 10
16 7 -1 63 37 125 85 61 47 142 104 179 126 38 21 68 41 68 43 0 3 -6 2 -12
-1 -7 -4 7 12 32 34 25 22 43 41 40 41 -4 0 -10 -4 -16 -10z"/>
<path d="M3510 3410 c-14 -11 -20 -20 -13 -20 6 0 15 5 18 10 4 6 11 7 17 4 6
-4 8 -2 4 4 -3 5 0 13 6 15 7 3 9 6 3 6 -5 0 -21 -8 -35 -19z"/>
<path d="M1927 3379 c7 -7 34 -25 60 -42 26 -16 40 -26 30 -23 -11 3 -16 2
-12 -4 3 -6 11 -10 16 -10 21 0 187 -89 279 -149 52 -35 88 -60 80 -57 -8 2
-67 21 -130 41 -63 21 -160 52 -214 71 -54 19 -101 32 -104 30 -8 -8 111 -167
148 -198 19 -16 59 -40 88 -55 47 -23 60 -25 122 -19 112 10 127 24 20 18 -83
-4 -101 -2 -137 16 -53 28 -99 67 -134 116 -47 64 -40 67 74 34 97 -28 104
-32 113 -61 5 -17 16 -33 24 -35 11 -4 11 0 -3 16 -10 11 -17 29 -14 39 3 15
6 13 15 -9 13 -31 22 -34 40 -16 17 17 27 1 11 -19 -13 -17 -13 -17 7 0 32 27
53 21 102 -30 28 -30 39 -38 28 -20 -16 26 -16 27 3 27 11 0 25 -9 31 -20 11
-20 35 -27 44 -12 7 11 -51 123 -76 147 -18 18 -20 18 -15 2 10 -27 -12 -11
-88 62 -36 35 -65 60 -65 55 0 -4 10 -18 22 -31 28 -30 11 -29 -32 2 -18 13
-49 30 -69 36 -20 6 -56 23 -81 37 -30 17 -40 20 -31 9 13 -17 -45 5 -133 50
-20 10 -27 11 -19 2z"/>
<path d="M3030 3208 c-119 -54 -226 -110 -240 -125 -14 -14 -19 -23 -12 -19
15 9 15 1 2 -25 -7 -11 -7 -19 -1 -19 5 0 15 14 23 31 15 36 106 88 119 68 4
-6 12 -8 18 -5 6 4 9 11 6 16 -3 5 18 20 47 33 117 52 189 80 194 75 10 -10
-36 -88 -78 -134 -66 -71 -101 -88 -198 -95 l-85 -6 86 -1 c85 -2 88 -1 143
36 31 20 74 62 97 92 39 52 104 169 97 175 -2 1 -100 -42 -218 -97z"/>
<path d="M2503 3195 c3 -11 11 -40 17 -65 17 -68 21 -82 25 -78 6 5 -32 148
-40 156 -4 4 -5 -2 -2 -13z"/>
<path d="M2672 3155 c0 -16 2 -22 5 -12 2 9 2 23 0 30 -3 6 -5 -1 -5 -18z"/>
<path d="M2953 3104 c-12 -13 -18 -24 -13 -24 11 0 40 29 40 41 0 12 -1 11
-27 -17z"/>
<path d="M2662 3080 c0 -19 2 -27 5 -17 2 9 2 25 0 35 -3 9 -5 1 -5 -18z"/>
<path d="M2897 3089 c7 -7 15 -10 18 -7 3 3 -2 9 -12 12 -14 6 -15 5 -6 -5z"/>
<path d="M2370 2960 c-12 -8 -12 -10 5 -10 11 0 27 5 35 10 12 8 12 10 -5 10
-11 0 -27 -5 -35 -10z"/>
<path d="M3286 2903 c-2 -10 -8 -29 -11 -43 -5 -17 -4 -22 3 -15 11 11 27 75
18 75 -2 0 -7 -8 -10 -17z"/>
<path d="M1874 2797 c3 -33 10 -65 14 -69 5 -5 28 -12 52 -16 41 -7 43 -9 59
-62 16 -54 17 -55 59 -58 51 -4 53 6 7 36 -41 26 -85 84 -125 163 -18 36 -37
59 -51 62 -21 6 -22 4 -15 -56z"/>
<path d="M3291 2824 c0 -11 3 -14 6 -6 3 7 2 16 -1 19 -3 4 -6 -2 -5 -13z"/>
<path d="M3233 2773 c-7 -15 -11 -29 -8 -31 9 -9 65 21 65 35 0 8 -4 12 -9 8
-5 -3 -12 -1 -16 5 -10 16 -19 12 -32 -17z"/>
<path d="M2827 2752 c-25 -16 -36 -32 -19 -32 10 1 56 40 51 45 -2 2 -17 -4
-32 -13z"/>
<path d="M3175 2690 c-16 -17 -49 -40 -74 -52 l-46 -22 55 -13 c85 -19 95 -13
98 58 1 32 1 59 -1 59 -2 0 -16 -14 -32 -30z"/>
<path d="M2414 2685 c25 -19 36 -19 36 0 0 10 -10 15 -27 15 -27 -1 -27 -1 -9
-15z"/>
<path d="M2483 2693 c9 -2 23 -2 30 0 6 3 -1 5 -18 5 -16 0 -22 -2 -12 -5z"/>
<path d="M2548 2623 c6 -2 18 -2 25 0 6 3 1 5 -13 5 -14 0 -19 -2 -12 -5z"/>
<path d="M2995 2604 c-27 -13 -39 -21 -25 -18 42 11 68 22 75 33 8 14 9 14
-50 -15z"/>
<path d="M2162 2586 c29 -17 157 -50 165 -42 5 4 -30 15 -112 34 -22 5 -49 13
-60 16 -11 4 -8 0 7 -8z"/>
<path d="M2924 2571 c-5 -5 -61 -25 -124 -46 -152 -51 -216 -55 -343 -21 -90
23 -101 24 -122 10 -13 -8 -25 -24 -28 -35 -4 -16 -9 -18 -24 -11 -109 57
-275 -30 -302 -159 -6 -28 -11 -71 -11 -96 0 -36 -6 -52 -29 -78 -26 -30 -48
-109 -40 -141 2 -5 -17 -47 -41 -94 -23 -47 -62 -134 -86 -194 -24 -60 -55
-122 -70 -137 l-27 -28 58 -26 c32 -14 60 -25 62 -25 17 0 63 -45 63 -61 0
-26 -106 -125 -131 -121 -10 2 -19 -2 -19 -7 0 -16 42 -13 68 5 21 14 22 14
22 -5 0 -11 4 -22 10 -26 5 -3 7 -12 3 -20 -3 -8 -1 -15 4 -15 7 0 10 -31 4
-63 0 -4 -12 0 -25 8 -21 14 -24 14 -29 1 -4 -11 -1 -13 10 -9 9 4 19 -1 25
-10 5 -10 15 -17 23 -17 22 0 29 48 16 101 l-13 48 41 51 c23 29 41 58 41 67
0 9 8 13 22 11 19 -3 24 3 32 37 15 70 51 157 66 163 8 3 21 13 27 21 26 33
102 169 109 195 8 32 24 34 24 4 0 -30 15 -52 29 -44 16 10 14 -10 -5 -46 -9
-17 -17 -55 -18 -84 -1 -33 -8 -59 -18 -71 -10 -10 -27 -41 -39 -68 -12 -28
-28 -57 -36 -66 -13 -15 -10 -18 34 -32 26 -9 79 -19 116 -23 90 -9 73 -27
-33 -38 -19 -2 -36 -9 -38 -15 -2 -6 -14 -8 -28 -5 -13 3 -24 4 -24 0 0 -10
79 -46 102 -46 13 0 29 -10 37 -22 14 -22 13 -22 -11 -6 -18 12 -29 13 -36 6
-5 -5 -30 -11 -53 -13 -34 -2 -48 2 -62 19 -15 16 -18 17 -13 4 3 -10 -1 -32
-8 -50 -8 -18 -17 -44 -21 -58 -7 -22 -6 -23 9 -11 17 14 23 2 7 -14 -6 -6
-11 -29 -12 -53 -3 -45 -15 -56 -22 -19 -3 17 -5 15 -6 -8 -1 -20 6 -37 20
-48 17 -15 18 -21 8 -33 -6 -8 -10 -16 -8 -19 7 -6 134 146 183 220 31 45 46
80 51 115 13 96 83 140 134 86 26 -28 41 -83 30 -111 -4 -11 -8 -35 -8 -54 -2
-67 77 -281 103 -281 6 0 26 9 44 20 18 11 34 20 35 20 2 0 4 -19 6 -42 6
-119 66 -283 124 -340 37 -37 97 -144 97 -173 0 -41 50 -114 82 -121 17 -4 31
-17 38 -35 7 -16 16 -29 21 -29 5 0 16 -14 24 -30 10 -19 20 -28 27 -23 9 5 8
8 -2 12 -9 2 15 19 55 38 39 18 60 31 48 27 -13 -3 -28 -2 -33 1 -14 8 13 32
85 76 30 18 55 37 55 43 0 5 -8 2 -18 -7 -33 -30 -88 -46 -164 -48 -41 -1 -80
1 -87 5 -15 10 -14 38 4 62 8 10 15 24 15 30 0 15 -51 65 -60 59 -10 -6 -60
15 -60 26 0 4 5 11 10 14 6 3 10 2 10 -3 0 -11 119 -36 128 -27 4 3 2 13 -4
23 -9 13 -5 20 19 37 17 11 37 31 45 45 12 20 9 19 -17 -7 -36 -37 -50 -40
-72 -15 -22 24 -62 57 -96 78 -62 40 -102 78 -112 107 -6 17 -10 32 -8 34 2 1
40 5 85 7 91 4 109 11 91 32 -6 8 -19 14 -28 14 -9 0 -54 20 -100 43 -71 36
-84 47 -87 70 -1 15 2 27 7 27 5 0 9 7 9 15 0 8 7 15 15 15 18 0 19 11 3 29
-11 11 -10 13 5 8 18 -7 25 17 7 28 -7 4 -7 13 0 26 13 22 4 43 -13 33 -7 -4
-9 -4 -5 1 4 4 16 13 26 19 11 6 44 26 73 44 30 17 71 37 91 42 20 6 40 15 43
20 3 5 -20 0 -52 -11 -32 -11 -78 -24 -102 -30 -24 -5 -80 -27 -125 -49 -77
-36 -133 -83 -174 -146 -7 -10 -5 -3 4 16 9 19 26 44 38 56 27 26 31 46 9 42
-10 -2 -17 2 -16 10 4 16 -14 16 -20 0 -3 -8 -6 -5 -6 5 -1 10 -5 16 -10 12
-5 -3 -12 -1 -15 4 -3 5 4 12 17 16 21 6 21 7 -8 16 -16 5 -35 7 -42 5 -6 -3
-14 2 -17 10 -8 22 -7 44 2 43 4 -1 32 0 62 1 58 2 54 5 -22 15 -41 5 -46 9
-42 28 2 14 -5 29 -24 45 l-27 23 65 -6 c94 -9 386 11 439 29 24 9 47 13 52
11 13 -9 -17 70 -47 121 -26 43 -27 50 -20 136 4 56 2 97 -5 109 -9 17 -5 26
23 57 45 50 77 118 91 192 15 77 30 78 105 4 56 -56 138 -116 198 -147 29 -15
33 -14 73 9 24 13 46 22 50 19 12 -7 75 43 84 68 5 12 11 72 14 132 4 71 11
118 20 132 18 27 21 89 6 104 -8 8 -17 1 -32 -29 -24 -48 -69 -67 -137 -59
-52 5 -90 28 -112 68 -10 16 -22 29 -28 29 -6 0 -25 18 -44 41 -31 39 -134 99
-171 99 -14 0 -78 27 -120 50 -9 5 -20 5 -25 1z m-634 -726 c0 -8 -4 -15 -10
-15 -5 0 -7 7 -4 15 4 8 8 15 10 15 2 0 4 -7 4 -15z m-174 -641 c-7 -36 -8
-36 -23 -15 -14 20 -13 24 3 40 25 24 28 20 20 -25z m471 -50 c-3 -3 -12 -4
-19 -1 -8 3 -5 6 6 6 11 1 17 -2 13 -5z m-40 -156 c-3 -7 -5 -2 -5 12 0 14 2
19 5 13 2 -7 2 -19 0 -25z"/>
<path d="M2093 1393 c2 -12 6 -26 10 -29 11 -11 8 19 -3 36 -8 12 -9 10 -7 -7z"/>
<path d="M3022 1330 c0 -14 2 -19 5 -12 2 6 2 18 0 25 -3 6 -5 1 -5 -13z"/>
<path d="M2663 1213 c4 -3 1 -13 -6 -22 -11 -14 -10 -14 5 -2 16 12 16 31 1
31 -4 0 -3 -3 0 -7z"/>
<path d="M1769 1125 c-3 -31 -8 -39 -21 -37 -10 2 -18 -2 -18 -8 0 -5 11 -10
24 -10 27 0 37 28 25 70 -5 22 -7 20 -10 -15z"/>
<path d="M2052 1140 c0 -14 2 -19 5 -12 2 6 2 18 0 25 -3 6 -5 1 -5 -13z"/>
<path d="M2328 1124 c-3 -22 -27 -88 -53 -148 -85 -196 -104 -216 -164 -168
-28 23 -39 41 -50 85 -7 32 -17 57 -21 57 -12 0 -24 -41 -14 -49 22 -15 32
-63 31 -143 -1 -51 2 -90 8 -92 6 -3 4 -5 -3 -5 -7 -1 -15 6 -18 14 -4 8 -9
13 -14 10 -4 -2 -5 7 -2 20 2 15 0 25 -7 25 -6 0 -11 8 -12 18 0 14 -2 14 -9
-3 -19 -44 -6 -152 27 -221 8 -17 16 -39 17 -50 4 -24 -20 -48 -39 -40 -25 9
-17 -11 13 -33 47 -36 53 -42 47 -52 -11 -17 6 -47 33 -57 36 -14 100 -24 158
-24 l47 0 -29 -17 c-55 -33 -103 -43 -172 -37 -93 9 -123 16 -116 27 7 12 2
11 -37 -6 -45 -20 -60 -33 -92 -80 -33 -48 -34 -80 -5 -96 48 -26 297 12 363
55 12 8 32 12 43 9 33 -8 68 34 75 91 4 26 4 52 1 57 -3 5 2 16 10 25 9 8 16
29 16 46 0 20 9 39 24 53 19 18 25 34 26 76 4 90 3 203 -2 224 -2 11 -11 54
-20 95 -9 41 -22 134 -29 205 -14 151 -23 189 -31 129z m-241 -514 c20 0 22
-2 11 -20 -7 -10 -14 -17 -17 -15 -2 3 -11 -1 -20 -8 -14 -10 -14 -10 -3 5 14
18 7 43 -9 33 -5 -4 -9 2 -9 11 0 14 3 15 12 6 7 -7 22 -12 35 -12z m200 -6
c-3 -3 -12 -4 -19 -1 -8 3 -5 6 6 6 11 1 17 -2 13 -5z m43 -173 c14 -21 17
-32 9 -37 -8 -5 -10 -2 -5 7 4 8 1 7 -6 -2 -29 -35 -168 -54 -168 -24 0 9 7
18 16 22 15 6 15 8 -2 20 -16 12 -14 13 23 13 27 0 43 5 47 15 10 27 62 18 86
-14z m-172 -25 c-1 -2 -14 -9 -28 -15 -24 -11 -24 -11 -6 3 11 9 14 16 8 16
-7 0 -12 5 -12 10 0 7 7 7 21 0 11 -7 19 -13 17 -14z m106 -91 c3 -9 12 -12
23 -9 15 5 16 4 3 -5 -23 -16 -37 -13 -43 9 -6 23 8 27 17 5z"/>
<path d="M2033 1020 c1 -14 4 -16 14 -8 16 13 16 15 -1 21 -10 4 -14 0 -13
-13z"/>
<path d="M3183 723 c-13 -2 -23 -8 -23 -13 0 -5 -9 -11 -19 -15 -11 -3 -22
-13 -25 -21 -3 -9 7 -5 28 11 18 14 38 25 44 25 6 0 14 5 17 10 3 6 5 9 3 9
-2 -1 -13 -4 -25 -6z"/>
<path d="M3325 221 c-19 -60 -202 -89 -265 -42 -37 27 -48 22 -32 -14 7 -14
12 -36 12 -48 0 -29 80 -93 134 -108 91 -25 227 16 254 76 16 35 -31 119 -80
146 -12 7 -18 4 -23 -10z"/>
</g>
</svg>
