<?xml version="1.0" standalone="no"?>
<!DOCTYPE svg PUBLIC "-//W3C//DTD SVG 20010904//EN"
 "http://www.w3.org/TR/2001/REC-SVG-20010904/DTD/svg10.dtd">
<svg version="1.0" xmlns="http://www.w3.org/2000/svg"
 width="512.000000pt" height="512.000000pt" viewBox="0 0 512.000000 512.000000"
 preserveAspectRatio="xMidYMid meet">

<g transform="translate(0.000000,512.000000) scale(0.100000,-0.100000)"
fill="#000000" stroke="none">
<path d="M1405 3040 c-96 -10 -155 -28 -155 -45 0 -19 17 -19 110 1 52 11 132
17 260 17 165 1 194 -1 270 -22 129 -35 130 -35 130 -18 0 16 -6 19 -140 53
-72 18 -352 26 -475 14z"/>
<path d="M2949 2995 c-96 -13 -159 -35 -159 -56 0 -7 9 -9 23 -4 104 32 162
38 357 39 170 1 216 -2 270 -18 84 -23 95 -24 95 -7 0 45 -377 74 -586 46z"/>
<path d="M1505 2759 c-99 -10 -256 -74 -277 -113 -23 -42 -1 -164 43 -246 53
-97 130 -174 184 -183 17 -3 54 -10 84 -16 89 -18 203 -14 266 10 107 40 184
150 205 291 13 88 3 122 -49 172 -64 62 -284 103 -456 85z m260 -43 c77 -10
129 -31 172 -70 44 -40 46 -44 44 -96 -3 -151 -83 -276 -202 -315 -109 -36
-313 -7 -385 55 -46 39 -103 134 -131 216 -22 65 -23 79 -13 105 21 49 166
108 285 116 38 2 71 5 72 7 2 2 50 -4 158 -18z"/>
<path d="M1629 2579 c-20 -20 -20 -22 -3 -40 37 -42 90 -8 64 41 -14 26 -34
26 -61 -1z"/>
<path d="M3005 2708 c-88 -14 -189 -55 -224 -90 -36 -37 -45 -84 -38 -196 3
-51 12 -92 25 -118 30 -60 109 -109 225 -140 60 -16 219 -15 250 1 13 6 36 15
52 19 15 4 54 33 84 65 112 113 185 326 134 388 -17 21 -93 54 -159 68 -49 11
-286 13 -349 3z m400 -48 c33 -12 68 -30 77 -39 34 -32 25 -107 -28 -215 -64
-128 -123 -183 -231 -211 -109 -29 -234 -12 -342 45 -92 49 -111 87 -111 218
0 92 2 103 25 130 56 67 210 103 420 97 104 -2 142 -7 190 -25z"/>
<path d="M3062 2538 c-17 -17 -15 -57 2 -64 21 -8 56 14 56 34 0 20 -18 42
-35 42 -6 0 -16 -5 -23 -12z"/>
<path d="M770 2036 c0 -2 8 -10 18 -17 15 -13 16 -12 3 4 -13 16 -21 21 -21
13z"/>
<path d="M865 1969 c6 -9 75 -33 80 -27 2 2 -16 11 -40 19 -25 9 -42 13 -40 8z"/>
<path d="M968 1933 c6 -2 18 -2 25 0 6 3 1 5 -13 5 -14 0 -19 -2 -12 -5z"/>
<path d="M3645 1850 c-3 -6 1 -7 9 -4 18 7 21 14 7 14 -6 0 -13 -4 -16 -10z"/>
<path d="M2145 1690 c-9 -15 21 -63 54 -88 69 -51 168 -66 239 -37 40 17 112
82 112 101 0 8 -49 14 -157 19 -87 4 -177 8 -200 10 -24 2 -45 -1 -48 -5z
m365 -44 c0 -8 -4 -17 -8 -20 -4 -2 -8 4 -8 15 0 10 4 19 8 19 4 0 8 -6 8 -14z
m-35 -6 c3 -5 1 -10 -4 -10 -6 0 -11 5 -11 10 0 6 2 10 4 10 3 0 8 -4 11 -10z
m-40 -10 c-3 -5 -14 -10 -23 -9 -14 0 -13 2 3 9 27 11 27 11 20 0z"/>
<path d="M1246 1563 c44 -43 88 -73 155 -106 92 -45 280 -117 303 -117 6 1
-41 20 -105 43 -167 62 -283 122 -353 185 l-61 54 61 -59z"/>
<path d="M3370 1469 c-22 -18 -22 -19 -3 -10 12 6 25 16 28 21 9 15 3 12 -25
-11z"/>
<path d="M3285 1419 c-16 -10 -25 -19 -20 -19 6 0 24 9 40 20 17 11 26 20 20
19 -5 0 -23 -9 -40 -20z"/>
<path d="M3140 1360 c-8 -5 -10 -10 -5 -10 6 0 17 5 25 10 8 5 11 10 5 10 -5
0 -17 -5 -25 -10z"/>
<path d="M1644 1304 c-18 -15 -18 -15 3 -5 28 14 36 14 27 -1 -4 -6 -3 -8 3
-5 11 7 48 -41 39 -50 -3 -3 1 -15 9 -26 13 -18 11 -22 -12 -40 l-26 -21 -47
50 c-43 45 -50 49 -78 42 -17 -5 -34 -13 -38 -19 -4 -8 0 -8 14 0 27 15 29 14
35 -9 3 -11 13 -23 24 -27 10 -4 24 -15 31 -25 7 -10 20 -18 29 -18 11 0 13
-3 5 -12 -13 -17 -43 -120 -33 -113 5 3 11 -1 14 -8 9 -24 69 -45 112 -41 76
9 175 73 190 124 4 14 12 28 18 32 6 3 10 23 9 43 -2 47 12 37 28 -20 16 -56
9 -145 -13 -179 -23 -34 -141 -89 -192 -89 -87 1 -116 6 -148 27 -55 38 -63
41 -42 16 35 -41 53 -58 58 -54 2 2 26 -1 53 -6 66 -14 124 -17 124 -7 0 5 10
7 23 6 31 -4 88 11 82 21 -3 5 4 11 15 15 11 3 20 11 20 16 0 5 7 9 15 9 8 0
15 6 15 13 0 21 45 40 77 33 20 -4 15 1 -19 19 -27 14 -48 30 -48 36 0 5 7 26
17 47 9 20 15 40 15 45 -1 4 5 7 14 7 8 0 12 5 8 11 -4 7 0 9 12 5 67 -20 138
-35 148 -30 6 3 4 0 -5 -8 -9 -7 -14 -19 -11 -27 3 -8 0 -11 -7 -7 -6 4 -11 5
-11 2 0 -13 26 -63 43 -83 20 -22 16 -43 -8 -43 -7 0 -17 -9 -20 -20 -7 -23
-21 -26 -28 -7 -2 6 -6 -7 -8 -30 -3 -24 -1 -43 3 -43 5 0 8 -7 8 -15 0 -8 8
-15 18 -15 9 0 28 -9 42 -20 32 -25 147 -29 156 -5 4 8 10 13 14 10 10 -6 44
44 36 53 -3 3 -6 0 -6 -6 0 -14 -52 -42 -77 -42 -10 0 1 9 24 21 68 33 72 69
19 151 -14 21 -15 31 -6 48 6 12 14 19 18 16 3 -4 0 -12 -6 -18 -7 -7 -12 -17
-12 -23 0 -5 7 -1 15 9 18 23 19 59 5 87 -12 21 -15 19 57 36 23 6 40 6 37 2
-3 -5 -1 -9 3 -9 5 0 16 -12 25 -27 9 -16 26 -38 38 -51 21 -23 21 -24 4 -37
-17 -13 -17 -14 -2 -15 10 0 32 -8 50 -18 56 -32 135 -53 180 -50 l43 3 -81
33 c-111 45 -154 93 -154 171 0 32 3 39 15 35 11 -5 15 1 15 22 0 20 -3 25 -9
15 -5 -8 -11 -9 -15 -3 -5 9 -63 -2 -212 -42 -46 -12 -68 -14 -88 -6 -15 5
-43 10 -63 10 -20 0 -98 20 -173 44 -75 25 -153 48 -173 51 -36 7 -37 6 -37
-21 0 -20 3 -25 9 -16 6 10 10 8 14 -9 4 -13 4 -25 2 -28 -3 -2 -5 1 -5 7 0 7
-10 12 -21 12 -12 0 -54 25 -94 55 -76 59 -114 69 -151 39z m23 -256 c-3 -8
-6 -5 -6 6 -1 11 2 17 5 13 3 -3 4 -12 1 -19z m679 -152 c11 -23 10 -24 -10
-13 -25 14 -36 28 -30 39 8 12 28 -1 40 -26z m-133 -15 c2 -10 1 -25 -4 -32
-6 -10 -9 -4 -9 19 0 36 5 42 13 13z m82 -59 c-3 -3 -11 0 -18 7 -9 10 -8 11
6 5 10 -3 15 -9 12 -12z"/>
<path d="M2886 1271 c-10 -15 22 -20 34 -5 10 11 9 14 -8 14 -12 0 -23 -4 -26
-9z"/>
<path d="M2780 1255 c-72 -23 -89 -68 -50 -132 27 -45 60 -63 122 -70 70 -7
108 19 108 75 0 93 -89 155 -180 127z"/>
<path d="M3130 1256 c0 -3 9 -10 20 -16 11 -6 20 -8 20 -6 0 3 -9 10 -20 16
-11 6 -20 8 -20 6z"/>
<path d="M1469 1183 c-13 -16 -12 -17 4 -4 16 13 21 21 13 21 -2 0 -10 -8 -17
-17z"/>
<path d="M3141 1148 c-8 -13 -21 -34 -30 -48 -14 -23 -14 -24 1 -12 13 11 26
9 73 -7 57 -20 71 -28 130 -73 22 -17 17 -7 -23 42 -88 109 -99 120 -118 120
-11 0 -25 -10 -33 -22z"/>
<path d="M1505 1150 c3 -5 8 -10 11 -10 2 0 4 5 4 10 0 6 -5 10 -11 10 -5 0
-7 -4 -4 -10z"/>
<path d="M1525 1142 c-3 -10 -1 -18 7 -21 7 -2 30 -22 51 -44 23 -26 37 -35
37 -24 0 25 -11 47 -21 41 -5 -3 -6 1 -3 9 3 9 -8 22 -30 35 -31 18 -35 19
-41 4z"/>
<path d="M1377 1044 c-47 -37 -83 -96 -71 -116 4 -7 3 -8 -4 -4 -7 4 -20 -10
-33 -36 l-22 -43 73 69 c40 38 92 77 116 87 l43 19 28 -26 c15 -15 23 -24 16
-21 -13 8 -6 -30 8 -39 5 -3 6 2 3 10 -3 9 -2 16 4 16 11 0 26 -59 38 -147 4
-37 3 -53 -5 -53 -6 0 -11 -18 -11 -44 0 -24 -7 -63 -15 -86 -8 -23 -18 -69
-21 -101 -3 -32 -14 -98 -25 -146 -11 -49 -26 -144 -34 -213 -8 -69 -17 -135
-20 -147 -5 -22 -3 -23 75 -23 l80 0 1 63 c1 125 -3 202 -11 205 -4 2 -4 20 1
40 16 71 29 334 19 402 -42 281 -62 338 -122 359 -48 17 -61 14 -111 -25z"/>
<path d="M3075 1047 c-12 -18 -15 -62 -17 -203 -2 -102 2 -186 7 -196 7 -11 9
46 6 171 -3 159 -1 193 13 219 19 37 13 43 -9 9z"/>
<path d="M2230 970 c0 -5 5 -10 11 -10 5 0 7 5 4 10 -3 6 -8 10 -11 10 -2 0
-4 -4 -4 -10z"/>
<path d="M3531 625 c-1 -27 8 -78 19 -113 26 -82 65 -281 81 -410 l13 -103
108 2 c61 1 105 5 102 10 -3 5 -9 7 -13 5 -10 -6 -46 62 -38 71 4 3 7 -1 7
-10 0 -10 4 -17 9 -17 10 0 -92 220 -219 475 l-69 140 0 -50z"/>
<path d="M3093 478 c6 -44 20 -169 36 -340 13 -135 16 -138 102 -138 68 0 70
1 63 23 -3 12 -12 29 -19 37 -14 17 -33 69 -45 120 -13 55 -17 70 -49 157 -32
88 -78 183 -87 183 -4 0 -4 -19 -1 -42z"/>
<path d="M1101 374 c0 -11 3 -14 6 -6 3 7 2 16 -1 19 -3 4 -6 -2 -5 -13z"/>
<path d="M1076 247 c-16 -90 -35 -175 -52 -229 -4 -13 0 -18 13 -18 16 0 21
21 41 171 13 94 22 173 20 175 -3 2 -13 -42 -22 -99z"/>
</g>
</svg>
