<?xml version="1.0" standalone="no"?>
<!DOCTYPE svg PUBLIC "-//W3C//DTD SVG 20010904//EN"
 "http://www.w3.org/TR/2001/REC-SVG-20010904/DTD/svg10.dtd">
<svg version="1.0" xmlns="http://www.w3.org/2000/svg"
 width="973.000000pt" height="840.000000pt" viewBox="0 0 973.000000 840.000000"
 preserveAspectRatio="xMidYMid meet">

<g transform="translate(0.000000,840.000000) scale(0.100000,-0.100000)"
fill="#000000" stroke="none">
<path d="M4648 5138 c-4 -105 -7 -118 -38 -176 -64 -121 -213 -231 -400 -296
-88 -31 -165 -46 -280 -55 l-85 -6 -3 -197 c-2 -155 0 -198 10 -199 142 -6
392 20 493 51 251 79 339 125 467 248 l68 65 72 -69 c40 -38 106 -88 145 -112
71 -42 223 -106 293 -124 157 -39 238 -51 383 -55 l157 -6 -2 199 -3 199 -90
7 c-163 12 -261 37 -399 103 -145 69 -246 165 -296 280 -20 44 -29 121 -30
248 0 4 -103 7 -229 7 l-228 0 -5 -112z"/>
<path d="M1690 5221 c-154 -59 -250 -191 -284 -388 -15 -81 -15 -101 -2 -180
26 -160 85 -271 184 -345 104 -77 54 -73 837 -76 499 -3 719 0 767 8 149 26
276 158 322 337 20 78 21 240 1 316 -36 140 -123 255 -233 309 l-67 33 -740 2
c-681 1 -744 0 -785 -16z m1334 -422 c36 -42 35 -89 -3 -131 l-29 -33 -499 -3
c-519 -3 -553 -1 -589 39 -28 31 -26 100 5 133 l24 26 533 0 532 0 26 -31z"/>
<path d="M6519 5216 c-125 -51 -199 -136 -256 -293 -14 -37 -18 -80 -18 -188
0 -130 2 -145 28 -212 51 -131 134 -221 247 -269 43 -18 82 -19 750 -22 728
-3 777 -1 856 37 49 24 137 110 169 166 81 137 99 354 43 509 -40 109 -123
212 -204 254 -81 42 -76 42 -834 42 l-725 0 -56 -24z m1345 -417 c42 -50 31
-114 -26 -149 -32 -19 -51 -20 -531 -20 -422 0 -502 2 -527 15 -64 33 -79 101
-34 154 l26 31 533 0 533 0 26 -31z"/>
<path d="M1397 3843 c-4 -3 -7 -134 -7 -290 l0 -283 3473 2 3472 3 0 285 0
285 -3466 3 c-1906 1 -3469 -1 -3472 -5z m774 -126 c88 -59 83 -205 -9 -259
-46 -28 -118 -24 -160 8 -83 64 -80 203 6 257 41 25 121 22 163 -6z m404 -1
c3 -6 6 -71 7 -144 l3 -132 -36 0 c-42 0 -53 8 -38 26 7 8 9 59 7 139 -2 77 1
126 7 128 16 6 46 -5 50 -17z m110 -1 c0 -23 -34 -33 -46 -14 -10 17 9 41 30
37 9 -2 16 -12 16 -23z m760 -79 c20 -49 47 -110 60 -137 14 -27 25 -50 25
-52 0 -6 -103 -6 -113 0 -5 3 0 11 10 18 17 13 17 15 1 42 -15 25 -22 28 -73
28 -30 0 -55 1 -55 3 0 2 6 16 14 30 7 15 18 38 24 52 6 14 20 47 32 74 12 29
24 46 29 40 5 -5 25 -49 46 -98z m910 79 c0 -22 -31 -33 -47 -17 -17 17 -1 44
24 40 15 -2 23 -10 23 -23z m1098 -4 c21 -17 22 -74 2 -91 -19 -16 -19 -40 0
-40 23 0 36 -44 24 -78 -14 -40 -72 -61 -166 -60 -70 0 -91 9 -57 22 13 5 15
25 12 136 -2 105 0 130 11 132 34 7 159 -8 174 -21z m1148 13 c11 -7 12 -44 1
-44 -5 0 -17 9 -27 20 -14 15 -29 20 -54 18 -31 -3 -36 -7 -36 -28 0 -19 12
-32 50 -56 101 -64 118 -105 68 -164 -27 -33 -36 -34 -143 -17 -25 4 -36 26
-26 52 4 11 13 7 35 -15 44 -45 111 -38 111 11 0 18 -22 38 -89 78 -45 27 -62
62 -50 104 12 46 36 58 98 52 29 -3 58 -8 62 -11z m714 -9 c0 -22 -31 -33 -47
-17 -17 17 -1 44 24 40 15 -2 23 -10 23 -23z m-3675 -113 c0 -83 4 -132 11
-139 9 -9 6 -13 -14 -18 -40 -10 -63 -2 -57 20 3 11 5 75 4 143 l0 122 28 0
28 0 0 -128z m990 71 c4 -44 8 -51 20 -43 21 13 43 12 63 -3 14 -9 19 -32 23
-100 l5 -87 -25 0 c-49 0 -51 5 -48 91 3 74 2 80 -15 77 -15 -3 -18 -14 -19
-83 l-2 -80 -36 0 c-20 0 -36 3 -36 8 0 4 0 68 0 143 l0 135 33 -3 c31 -3 32
-5 37 -55z m1453 44 c3 -7 5 -64 6 -126 0 -62 3 -122 7 -133 5 -17 2 -19 -38
-16 -33 2 -42 6 -38 18 3 8 5 72 5 143 l0 127 26 0 c15 0 29 -6 32 -13z
m-1574 -85 l24 -4 -24 -12 c-20 -10 -24 -20 -27 -68 -2 -41 1 -60 13 -72 20
-20 11 -36 -19 -36 -35 0 -44 18 -50 98 -4 40 -7 76 -9 80 -1 5 12 24 28 43
l30 35 5 -31 c4 -22 11 -31 29 -33z m1335 -2 c26 0 42 9 70 37 l36 37 0 -37
c0 -32 3 -37 23 -38 l22 0 -22 -9 c-21 -8 -23 -16 -23 -74 0 -50 4 -67 16 -74
23 -13 8 -32 -25 -32 -36 0 -50 28 -53 110 l-3 65 -35 0 -35 0 -3 -65 c-2 -51
0 -67 13 -77 21 -15 11 -33 -17 -33 -42 0 -58 28 -58 101 0 37 -4 70 -9 73 -5
3 8 24 28 46 l36 41 3 -35 c3 -33 6 -36 36 -36z m-3410 -12 c8 -13 16 -56 18
-100 l3 -78 -36 0 -36 0 5 80 c4 69 2 81 -13 86 -27 11 -36 -15 -33 -91 l3
-70 -35 -3 -35 -3 0 97 0 96 43 -5 c23 -2 45 -1 48 4 11 18 54 9 68 -13z m470
0 c8 -13 16 -56 18 -100 3 -77 3 -77 -22 -76 -45 1 -63 9 -51 21 6 6 11 39 11
74 0 49 -4 65 -16 70 -25 9 -35 -17 -33 -92 l2 -70 -33 0 -32 0 -2 94 -1 93
43 -5 c23 -2 45 -1 48 4 11 18 54 9 68 -13z m202 -3 c38 -38 29 -59 -29 -63
-40 -3 -47 -6 -47 -24 0 -30 28 -58 58 -58 21 0 22 -2 12 -15 -13 -15 -56 -20
-85 -9 -23 9 -45 57 -45 97 0 25 9 44 29 66 36 38 73 40 107 6z m737 15 c16 0
17 -3 7 -15 -7 -8 -10 -22 -6 -30 10 -27 -12 -64 -41 -70 -15 -4 -38 -8 -50
-11 -34 -7 -29 -34 6 -34 78 0 120 -27 106 -69 -7 -23 -39 -37 -92 -40 -72 -4
-81 2 -81 62 0 32 6 58 15 69 13 15 12 19 -6 37 -28 28 -26 56 5 88 22 22 31
25 71 19 25 -3 55 -6 66 -6z m197 -17 c30 -25 32 -30 28 -79 -5 -64 -33 -93
-90 -94 -28 0 -41 6 -57 27 -41 51 -39 106 4 149 32 32 75 31 115 -3z m225 2
c0 -16 -6 -20 -33 -17 -27 2 -34 -2 -43 -25 -10 -26 -9 -75 2 -113 3 -12 -5
-15 -36 -15 -31 0 -39 4 -36 15 11 44 12 113 2 141 l-11 32 50 -6 c29 -4 52
-2 56 4 11 18 49 6 49 -16z m695 10 c12 -14 15 -14 36 0 60 39 94 9 94 -84 0
-39 5 -72 12 -79 14 -14 14 -14 -37 -17 l-40 -2 4 84 c3 84 3 85 -20 81 -23
-3 -24 -7 -25 -82 0 -84 -5 -93 -47 -82 -21 5 -22 9 -19 77 4 61 2 75 -13 85
-15 11 -20 11 -31 -4 -16 -20 -18 -105 -4 -132 11 -21 0 -28 -45 -26 -22 1
-29 5 -25 16 3 8 5 50 5 93 l0 78 42 -3 c24 -1 46 1 49 5 13 12 51 7 64 -8z
m710 -5 c15 -15 20 -35 22 -85 0 -36 1 -71 2 -77 1 -17 -41 -23 -58 -9 -9 7
-21 7 -43 -1 -41 -16 -63 -5 -63 31 0 24 8 34 50 60 28 17 50 35 50 40 0 23
-14 41 -31 41 -14 0 -19 -7 -19 -30 0 -23 -4 -30 -20 -30 -26 0 -36 25 -19 46
31 37 99 44 129 14z m596 -5 c14 -14 24 -33 22 -43 -3 -16 -11 -18 -75 -21
-28 -1 -30 -26 -7 -60 12 -17 24 -22 45 -19 27 4 28 4 12 -14 -20 -23 -76 -24
-98 -1 -62 61 -27 183 52 183 13 0 35 -11 49 -25z m524 5 c11 -11 20 -31 20
-45 0 -23 -4 -25 -45 -25 -40 0 -45 -2 -45 -23 0 -39 23 -60 58 -55 30 4 31 4
15 -14 -24 -27 -78 -23 -108 7 -37 37 -35 106 4 146 35 34 72 38 101 9z m210
-6 c0 -24 -3 -26 -29 -21 -15 3 -33 1 -40 -6 -14 -14 -15 -113 -1 -122 19 -12
-1 -24 -36 -22 l-35 2 -2 94 -2 93 42 -5 c22 -2 47 -1 55 4 27 18 48 10 48
-17z m491 16 c23 -13 25 -38 3 -47 -11 -4 -23 2 -34 17 -25 33 -40 17 -40 -42
0 -55 19 -88 52 -88 27 0 22 -19 -7 -26 -44 -11 -73 4 -96 47 -25 50 -20 80
21 120 30 30 66 37 101 19z m195 -15 c38 -38 29 -59 -29 -63 -52 -3 -60 -19
-31 -61 12 -17 24 -22 45 -19 16 3 29 2 29 0 0 -12 -38 -31 -62 -32 -40 0 -57
9 -73 41 -51 98 48 207 121 134z m-4991 -65 c0 -41 2 -82 5 -90 4 -12 -5 -15
-38 -16 -36 -1 -42 1 -36 15 14 29 16 128 4 151 -11 20 -10 21 27 18 l38 -3 0
-75z m1665 1 c0 -48 4 -83 11 -87 17 -10 -10 -24 -49 -24 -27 0 -32 3 -28 18
11 33 13 80 6 126 l-7 46 34 0 33 0 0 -79z m2755 69 c-9 -15 14 -78 32 -88 13
-8 14 -14 2 -46 -7 -20 -18 -36 -24 -36 -6 0 -30 41 -52 90 l-41 90 44 0 c28
0 43 -4 39 -10z m86 -25 c-9 -19 -19 -34 -23 -35 -12 0 -10 18 2 25 6 4 8 15
5 26 -5 14 -2 19 13 19 19 0 19 -1 3 -35z m121 -42 c2 -43 6 -85 8 -93 4 -11
-4 -15 -33 -15 l-39 0 -1 93 -2 92 32 0 31 0 4 -77z m-4022 -62 c0 -11 5 -23
10 -26 20 -12 10 -25 -19 -25 -35 0 -46 13 -26 30 8 7 15 19 15 26 0 8 5 14
10 14 6 0 10 -9 10 -19z"/>
<path d="M2041 3694 c-17 -22 -21 -41 -21 -101 0 -98 17 -133 65 -133 52 0 75
42 75 136 0 85 -22 124 -70 124 -19 0 -36 -9 -49 -26z"/>
<path d="M3345 3604 c-8 -20 -15 -38 -15 -40 0 -2 16 -4 35 -4 19 0 35 2 35 5
0 11 -29 75 -34 75 -3 0 -13 -16 -21 -36z"/>
<path d="M5337 3703 c-10 -10 -8 -91 2 -97 18 -11 60 13 67 38 8 33 -12 66
-40 66 -12 0 -26 -3 -29 -7z"/>
<path d="M5332 3528 c3 -51 4 -53 33 -53 21 0 33 7 44 26 13 24 13 29 -2 53
-13 19 -26 26 -48 26 -30 0 -30 0 -27 -52z"/>
<path d="M3037 3614 c-4 -4 -7 -16 -7 -26 0 -13 7 -18 26 -18 21 0 25 4 22 22
-3 23 -27 35 -41 22z"/>
<path d="M3746 3604 c-10 -27 -7 -61 9 -74 18 -15 31 -7 39 25 12 46 -32 90
-48 49z"/>
<path d="M3727 3404 c-17 -17 -3 -24 49 -24 40 0 55 4 52 13 -5 13 -89 22
-101 11z"/>
<path d="M3956 3604 c-3 -9 -6 -37 -6 -64 0 -61 7 -80 30 -80 23 0 30 19 30
80 0 61 -7 80 -30 80 -10 0 -21 -7 -24 -16z"/>
<path d="M5602 3528 c-7 -7 -12 -23 -12 -36 0 -32 34 -26 38 7 5 29 -10 45
-26 29z"/>
<path d="M6197 3614 c-4 -4 -7 -16 -7 -26 0 -13 7 -18 26 -18 21 0 25 4 22 22
-3 23 -27 35 -41 22z"/>
<path d="M6721 3601 c-12 -21 -5 -31 20 -31 24 0 33 18 19 35 -17 20 -27 19
-39 -4z"/>
<path d="M7616 3605 c-11 -28 -7 -35 20 -35 21 0 25 4 22 22 -4 27 -33 36 -42
13z"/>
</g>
</svg>
