<?xml version="1.0" standalone="no"?>
<!DOCTYPE svg PUBLIC "-//W3C//DTD SVG 20010904//EN"
 "http://www.w3.org/TR/2001/REC-SVG-20010904/DTD/svg10.dtd">
<svg version="1.0" xmlns="http://www.w3.org/2000/svg"
 width="910.000000pt" height="512.000000pt" viewBox="0 0 910.000000 512.000000"
 preserveAspectRatio="xMidYMid meet">

<g transform="translate(0.000000,512.000000) scale(0.100000,-0.100000)"
fill="#000000" stroke="none">
<path d="M3600 4320 c-709 -410 -937 -546 -942 -563 -3 -12 -6 -559 -7 -1214
l-1 -1193 23 -14 c12 -8 439 -255 950 -550 l927 -535 928 535 c510 295 937
542 950 550 l22 15 0 1203 c0 939 -3 1206 -13 1218 -6 8 -109 70 -227 138
-118 68 -368 212 -555 320 -842 487 -1093 630 -1106 630 -8 0 -435 -243 -949
-540z m522 -871 c71 -15 166 -59 208 -96 70 -60 188 -101 257 -88 66 12 142
46 185 82 163 137 435 150 601 28 166 -123 324 -513 372 -921 39 -336 3 -527
-124 -655 -78 -77 -145 -102 -261 -97 -130 6 -198 42 -320 167 -52 53 -126
139 -165 189 l-70 92 -250 0 -250 0 -69 -91 c-38 -50 -113 -136 -165 -190
-123 -125 -191 -161 -321 -167 -116 -5 -183 20 -261 97 -127 128 -163 319
-124 655 28 241 87 458 176 645 99 209 194 306 339 345 67 18 170 20 242 5z
m-1229 -1988 c122 -70 384 -222 582 -336 198 -114 519 -299 712 -411 194 -112
357 -204 363 -204 6 0 230 127 498 281 1180 683 1385 800 1388 796 2 -2 -421
-249 -941 -550 l-945 -546 -853 493 c-468 271 -894 516 -944 545 -86 49 -102
61 -87 61 3 0 105 -58 227 -129z"/>
<path d="M3991 3079 c-33 -31 -41 -61 -41 -150 l0 -79 -85 0 c-96 0 -134 -14
-153 -55 -17 -36 -15 -55 8 -92 24 -40 77 -56 167 -51 l63 3 0 -78 c0 -94 17
-140 61 -162 27 -14 39 -15 71 -6 53 16 68 50 68 156 l0 85 69 0 c38 0 82 3
100 6 80 16 109 108 52 165 -28 28 -33 29 -125 29 l-96 0 0 96 c0 92 -1 97
-29 125 -37 36 -95 40 -130 8z"/>
<path d="M5118 3034 c-56 -30 -74 -112 -38 -171 24 -40 50 -54 102 -55 49 -1
86 25 112 76 16 32 17 44 7 76 -16 54 -62 90 -114 90 -23 -1 -54 -7 -69 -16z"/>
<path d="M4868 2734 c-61 -32 -78 -129 -32 -183 14 -17 42 -36 63 -42 32 -10
45 -8 83 9 38 16 48 27 62 64 15 37 15 49 4 83 -24 72 -112 106 -180 69z"/>
</g>
</svg>
